<?xml version="1.0" encoding="utf-8"?>
<!-- Generator: Adobe Illustrator 22.1.0, SVG Export Plug-In . SVG Version: 6.00 Build 0)  -->
<svg version="1.1" xmlns="http://www.w3.org/2000/svg" xmlns:xlink="http://www.w3.org/1999/xlink" x="0px" y="0px"
	 viewBox="0 0 500 500" style="enable-background:new 0 0 500 500;" xml:space="preserve">
<style type="text/css">
	.st0{display:none;}
	.st1{display:inline;fill:#F7FCF9;}
	.st2{fill:#E4ECEF;}
	.st3{clip-path:url(#SVGID_2_);}
	.st4{fill:#F39C12;}
	.st5{fill:#D35400;}
	.st6{fill:#F1C40F;}
	.st7{fill:#E67E22;}
	.st8{fill:#95A5A6;}
	.st9{fill:#7F8C8D;}
	.st10{fill:#34495E;}
	.st11{fill:#2C3E50;}
	.st12{fill:#FFD18D;}
	.st13{fill:#E5A070;}
	.st14{opacity:0.25;}
	.st15{fill:#FF6D55;}
	.st16{display:inline;fill:#34495E;}
	.st17{font-family:'AbrilFatface-Regular';}
	.st18{font-size:53.6199px;}
	.st19{display:inline;fill:#7F8C8D;}
	.st20{font-family:'Poppins-Medium';}
	.st21{font-size:22.5203px;}
	.st22{letter-spacing:2;}
	.st23{display:inline;}
	.st24{display:inline;fill:#95A5A6;}
	.st25{display:inline;fill:#E4ECEF;}
	.st26{fill:#22323F;}
	.st27{fill:#F7FCF9;}
	.st28{display:inline;fill:#F1C40F;}
</style>
<g id="BACKGROUND" class="st0">
	<rect class="st1" width="500" height="500"/>
</g>
<g id="OBJECTS">
	<path class="st2" d="M346.8,230.4v-23.5c0,0,32.8-47.8-3-89.5c-32.7-38.1-83.9-54.5-92.5-57l0,0c0,0,0,0-0.1,0
		c-0.4-0.1-0.6-0.2-0.8-0.2c0,0,0,0-0.1,0c-0.1,0-0.2,0-0.2-0.1c-0.1,0-0.1,0-0.1,0s0,0,0,0c-0.8,0.2-58.3,16-93.8,57.4
		c-35.8,41.7-3,89.5-3,89.5v23.5h-10.3c-14.2,0-25.7,11.5-25.7,25.7v115.5h265.5V256.1c0-14.2-11.5-25.7-25.7-25.7H346.8z"/>
	<g>
		<defs>
			<path id="SVGID_1_" d="M346.8,230.4v-23.5c0,0,32.8-47.8-3-89.5c-32.7-38.1-83.9-54.5-92.5-57l0,0c0,0,0,0-0.1,0
				c-0.4-0.1-0.6-0.2-0.8-0.2c0,0,0,0-0.1,0c-0.1,0-0.2,0-0.2-0.1c-0.1,0-0.1,0-0.1,0s0,0,0,0c-0.8,0.2-58.3,16-93.8,57.4
				c-35.8,41.7-3,89.5-3,89.5v23.5h-36l-27.3,45.4l-21.5,25.9l48.8,60.4v9.5h265.5v-7l24.3-16.1l35.3-47.1l-25-27.6l-34.7-43.4
				H346.8z"/>
		</defs>
		<clipPath id="SVGID_2_">
			<use xlink:href="#SVGID_1_"  style="overflow:visible;"/>
		</clipPath>
		<g class="st3">
			<g>
				<g>
					<path class="st4" d="M334.9,360.5c-15.8-72.5,76.4-79.8,76.4-79.8s-9.8,14.6-14.1,27.9C390.9,328,378.2,349.7,334.9,360.5"/>
					<path class="st5" d="M359.7,319.1c-0.4-5.8,1.7-14.9,1.7-14.9c-4.8,6.6-5.1,14.6-4.9,18.7c-5.1,6.2-9.6,12.5-13.4,18.2
						c-1.1-4.9-1-12.8-1-12.8c-2.7,5.9-2.3,13.7-1.9,17.3c-2.5,4-4.6,7.6-6.2,10.4c0.2,1.5,0.5,3,0.8,4.5c1.4-0.3,2.8-0.7,4.1-1.1
						c3.2-6.5,6.7-12.7,10.5-18.4c20.5-4.6,34.5-13.6,34.5-13.6c-14.9,6.4-26.2,7.5-30.6,7.7c3.9-5.5,7.9-10.6,11.8-15.2
						c13.7-3,24.2-9.8,24.2-9.8c-6.1,3.3-16.6,5.2-20.8,5.9c13.9-15.4,25.7-24.1,25.7-24.1C381.4,297.3,369.6,307.8,359.7,319.1z"/>
				</g>
			</g>
			<g>
				<g>
					<path class="st4" d="M169.1,364.2c15.8-72.5-76.4-79.8-76.4-79.8s9.8,14.6,14.1,27.9C113,331.7,125.7,353.4,169.1,364.2"/>
					<path class="st5" d="M144.2,322.8c0.4-5.8-1.7-14.9-1.7-14.9c4.8,6.6,5.1,14.6,4.9,18.7c5.1,6.2,9.6,12.5,13.4,18.2
						c1.1-4.9,1-12.8,1-12.8c2.7,5.9,2.3,13.7,1.9,17.3c2.5,4,4.6,7.6,6.2,10.4c-0.2,1.5-0.5,3-0.8,4.5c-1.4-0.3-2.8-0.7-4.1-1.1
						c-3.2-6.5-6.7-12.7-10.5-18.4c-20.5-4.6-34.5-13.6-34.5-13.6c14.9,6.4,26.2,7.5,30.6,7.7c-3.9-5.5-7.9-10.6-11.8-15.2
						c-13.7-3-24.2-9.8-24.2-9.8c6.1,3.3,16.6,5.2,20.8,5.9c-13.9-15.4-25.7-24.1-25.7-24.1C122.5,301,134.4,311.5,144.2,322.8z"/>
				</g>
			</g>
		</g>
		<g class="st3">
			<g>
				<g>
					<path class="st6" d="M75.1,313.7c0,0,13.2,9.8,24.2,31.8c11,22,35.3,33.7,66.2,31.1c0,0,2.9-19.5-12-38.3
						C138.5,319.6,112.5,306.5,75.1,313.7z"/>
					<path class="st7" d="M155.3,361.1c-0.2-3.6-1.1-11.3-4.8-16.6c0,0,1.5,7.7,1.2,12.7c-4.7-4.9-10.2-10.3-16.2-15.5
						c-0.5-4.1-2.2-11.9-8-17.5c0,0,3.6,8.6,4.2,14.3c-11.6-9.4-25-17.6-38.4-20.4c0,0,13.1,6.5,29.3,19.2c-4.2,0.1-14.9,0-21.4-2.2
						c0,0,11.4,4.8,25.3,5.4c4.6,3.8,9.4,8,14.2,12.8c-4.3,0.6-15.6,1.4-31.2-2.3c0,0,15.2,6.3,36.1,7.3
						c5.3,5.7,10.4,11.9,15.2,18.7c1.6-0.1,3.1-0.1,4.7-0.3c0,0,0.2-1.2,0.2-3.3C163.6,370.7,160,366.3,155.3,361.1z"/>
				</g>
			</g>
			<g>
				<g>
					<path class="st6" d="M331.9,377c1.4-81.2,101.6-65.8,101.6-65.8s-14.1,13.1-22,26.2C399.9,356.4,380.8,376.4,331.9,377"/>
					<path class="st7" d="M368.8,339.1c1-6.3,5.5-15.5,5.5-15.5c-6.8,5.8-9.1,14.3-9.9,18.7c-7,5.3-13.4,10.9-18.8,16.1
						c0-5.5,2.1-13.9,2.1-13.9c-4.4,5.6-5.9,14-6.3,18c-3.7,3.6-6.8,6.9-9.2,9.5c-0.1,1.6-0.2,3.3-0.2,5c1.6,0,3.1-0.1,4.6-0.1
						c5-6.2,10.4-11.8,15.8-17c23,0.2,40.2-5.7,40.2-5.7c-17.5,3.1-29.9,1.4-34.6,0.5c5.5-4.9,11.1-9.3,16.4-13.2
						c15.4,0.3,28.2-4.3,28.2-4.3c-7.3,2-19,1.4-23.7,1.1c18.7-12.9,33.5-19.2,33.5-19.2C397.5,321.3,382.2,329.5,368.8,339.1z"/>
				</g>
			</g>
		</g>
	</g>
	<g>
		<g>
			<path class="st8" d="M370.2,291.6c3.4,8.3,14.1,31.9,10.5,39.2c-3.6,7.3-21.9,8.1-24.7,4.1c-2.7-4.1-6.6-34.4-2.9-36.9
				C356.7,295.4,370.2,291.6,370.2,291.6z"/>
			<path class="st9" d="M366.5,304l1.3,11.5c0,0,4.5-0.2,8.2,3.7c0,0-15.4,2.9-17.7,3.6c-2.4,0.7-4.6-21-4.6-21L366.5,304z"/>
			<path class="st8" d="M255.8,291.6c-3.4,8.3-14.1,31.9-10.5,39.2c3.6,7.3,21.9,8.1,24.7,4.1c2.7-4.1,6.6-34.4,2.9-36.9
				C269.2,295.4,255.8,291.6,255.8,291.6z"/>
			<path class="st9" d="M252.3,317.9c0,0,3-2.6,6.5-2.4l2.6-10.4l9.5,5l-3.5,16.8L252.3,317.9z"/>
		</g>
		<g>
			<path class="st8" d="M356.2,278.5c-2.1-10.3-43.2-26.6-43.2-26.6s-41.1,16.3-43.2,26.6c-2.1,10.3-8.4,93.1-8.4,93.1h103.2
				C364.6,371.6,358.3,288.8,356.2,278.5z"/>
			<path class="st9" d="M359,303.7l-66.3,1.5l-13.3,5l-0.6,3.4l-12.1-6.4c-2.5,27.6-5.3,64.4-5.3,64.4h17.5l0.8-27.5
				c4.2-0.3,12.4-0.9,13.6-1.3c0,0,3.6,1.4,5.5-0.5c0,0,12.2,3.3,14.2-0.9c0,0,3,1.7,4.4,2c1.4,0.3,8.6-2.6,8.6-2.6s2.1,3.7,7.3,1.7
				c0,0,4.8,1.6,11.9,1.7c3.8,0.1,11.3,0.1,17.3,0C361.4,331.5,360.1,316.4,359,303.7z"/>
		</g>
		<g>
			<path class="st10" d="M379.5,302.5c-5.4-21.4-14.7-43.5-18.7-49.8c-4-6.4-14.4-30.4-15.4-33.1c-3.9-10.4,4.6-36.1-3.8-50.5
				c-8.2-14-19.7-19.4-28.6-19.4s-20.2,5.4-28.4,19.4c-8.4,14.4,0.1,40.1-3.8,50.5c-1,2.7-11.4,26.8-15.4,33.1
				c-4,6.4-13.4,28.4-18.7,49.8c0,0,39.8,24.8,64.2,27.4c24.4,2.7,35.5,9,35.5,9s-0.6-7-1.7-17.5
				C362.4,313.5,379.5,302.5,379.5,302.5z"/>
			<path class="st11" d="M282,254c1,6.9,2.4,13.5,5.2,19.6c2.7,6,6.6,11.5,11.6,15.7c4.9,4.3,10.9,7.3,17.2,9.2
				c6.4,1.9,13.2,2.6,20.1,2.3c-6.6,2.1-13.9,2.4-20.9,1c-7-1.3-13.8-4.5-19.3-9.2c-5.5-4.7-9.6-11-11.9-17.8
				C281.6,268.1,281.2,260.9,282,254z"/>
			<path class="st11" d="M307.4,283.9c4.9,0.2,9.6-0.3,13.9-2c4.3-1.7,8-4.5,11.1-7.8c3.1-3.4,5.7-7.3,7.7-11.5
				c2-4.3,3.4-8.8,4.1-13.7c0.9,4.9,0.2,10-1.4,14.7c-1.6,4.8-4.2,9.3-7.7,13c-1.8,1.8-3.7,3.5-5.9,4.9c-2.2,1.3-4.5,2.5-7,3.1
				C317.3,286,312,285.7,307.4,283.9z"/>
			<path class="st11" d="M333.6,182.6c0,0,2.9,13.8,0.6,20.5c-2.2,6.7-42.3-2.2-42.3-2.2c-0.8-11,1.7-22.9,1.7-22.9s-7.9,16.5-4,34
				s16.2,25.5,26.1,29.4c0,0-5.5-5.1-7.9-8.7c0,0,3.1,1.8,6.1,1.8c3.8,0,8.4-1.9,12.4-4.8c-0.3,3.8-1.3,9.1-4.4,12.6
				c-5.2,6-18.5-1-18.5-1c22.3,21.3,30.4-8.2,33.4-27.4C339,206,339.4,194.8,333.6,182.6z"/>
			<path class="st12" d="M334.1,200.9c-0.7-6.5-4.6-24.4-21.1-34.3c-16.5,9.9-20.4,27.8-21.1,34.3c-0.7,6.5,1.5,14.1,5,18
				c8.9,9.8,16.1,9.8,16.1,9.8s7.2,0,16.1-9.8C332.6,215.1,334.8,207.5,334.1,200.9z"/>
			<g>
				<circle class="st10" cx="303.4" cy="197.4" r="2.1"/>
				<circle class="st10" cx="322.6" cy="197.4" r="2.1"/>
				<path class="st10" d="M329.3,192.7c-2-0.9-3.8-1.6-5.6-1.7c-0.9,0-1.9,0-2.8,0.2c-0.5,0.1-1,0.3-1.5,0.4c-0.5,0.1-1,0.3-1.5,0.5
					c0.3-0.4,0.7-0.9,1.1-1.2c0.4-0.3,0.9-0.7,1.4-0.9c1-0.5,2.2-0.7,3.4-0.7c1.2,0.1,2.3,0.4,3.3,1.1
					C328,190.9,328.8,191.7,329.3,192.7z"/>
				<path class="st13" d="M306.4,215.3c2.3,0.7,4.4,1.2,6.5,1.2c1.1,0,2.1,0,3.2-0.2c0.6-0.1,1.1-0.2,1.7-0.3
					c0.6-0.1,1.1-0.3,1.8-0.4c-0.4,0.3-0.8,0.7-1.3,1c-0.5,0.3-1,0.6-1.6,0.7c-1.2,0.4-2.5,0.6-3.9,0.6c-1.4,0-2.7-0.3-3.8-0.7
					C307.9,216.6,306.9,216,306.4,215.3z"/>
				<path class="st10" d="M296.6,192.7c2-0.9,3.8-1.6,5.6-1.7c0.9,0,1.9,0,2.8,0.2c0.5,0.1,1,0.3,1.5,0.4c0.5,0.1,1,0.3,1.5,0.5
					c-0.3-0.4-0.7-0.9-1.1-1.2c-0.4-0.3-0.9-0.7-1.4-0.9c-1-0.5-2.2-0.7-3.4-0.7c-1.2,0.1-2.3,0.4-3.3,1.1
					C297.9,190.9,297.1,191.7,296.6,192.7z"/>
				<path class="st13" d="M315.5,208.6l-2-1c-0.1-0.1-0.6-0.1-0.9,0c0-0.8,0-2.1,0-3.2c0,0-0.5,1.1-0.9,2.4
					c-0.1,0.5-0.3,0.8-0.6,1.1l-0.7,0.8c-0.3,0.3-0.1,0.8,0.3,0.8c1.6,0.1,3.1-0.4,4.5,0C315.6,209.5,315.8,208.8,315.5,208.6z"/>
			</g>
			<path class="st8" d="M300.7,178c0,0,11.5-8.1,24.6,0c-3-4.2-7-8.2-12.3-11.4C307.7,169.8,303.7,173.8,300.7,178z"/>
			<g class="st14">
				<path class="st15" d="M306.3,206.2c0,1-2.2,1.8-4.9,1.8c-2.7,0-4.9-0.8-4.9-1.8c0-1,2.2-1.8,4.9-1.8
					C304.1,204.4,306.3,205.2,306.3,206.2z"/>
				<path class="st15" d="M329.4,206.2c0,1-2.2,1.8-4.9,1.8c-2.7,0-4.9-0.8-4.9-1.8c0-1,2.2-1.8,4.9-1.8
					C327.2,204.4,329.4,205.2,329.4,206.2z"/>
			</g>
		</g>
		<g>
			<g>
				<g>
					<path class="st13" d="M321.7,318c-1.7-12.1-3.8-18-3.8-23.6c0.1-5.6-4.8-2-4.9,4c0,6,0.6,17.1,1.8,19.3
						C316,319.8,321.7,318,321.7,318z"/>
					<path class="st12" d="M327.9,324.3c-3.2-1.3-6.1-9.5-7.4-15.8c-1.9-9-1.4-11.1-4.3-10.5c-1.8,0.4-2.6,2.8-1.9,7.7
						c0.7,4.9-5.9,30.2,3,33c3.3,1,9.7-1.8,9.7-1.8l35.1,1.5l0.4-16.2C362.5,322.4,333.1,326.4,327.9,324.3z"/>
					<path class="st13" d="M326.5,332.9c0,0-6.6,2.9-10.1,1.8c-1.7-0.6-2.1-1.9-2.1-5.6c0-3.7-1.4-9.6-1.4-9.7
						c-0.4,3.9-0.6,8-0.2,11.4c0,0,0,0,0,0c0.1,0.6,0.1,1.1,0.2,1.6c0,0.1,0,0.2,0.1,0.3c0.1,0.4,0.2,0.8,0.3,1.2c0,0,0,0.1,0,0.1
						c0,0,0,0,0,0c0.7,2.4,1.9,4.1,3.9,4.7c3.3,1,9.7-1.8,9.7-1.8l35.1,1.5l0.1-4.1L326.5,332.9z"/>
				</g>
				<path class="st8" d="M332,323.6c0,0,8.3-1.8,16.6-2.5c8.2-0.8,6.8-1.1,13.3-2.2s11.6-3.5,15.8,2.2s4.2,15.1-2.3,17.8
					c-6.5,2.8-16.7,1.7-23.5,1.4c-6.8-0.4-16.5,0.3-19.2-1.4C329.9,337.2,332,323.6,332,323.6z"/>
				<path class="st9" d="M376.9,333.6c-7,3-17.9,1.9-25.2,1.5c-7.1-0.4-17.1,0.3-20.4-1.3c0.1,2.5,0.4,4.6,1.4,5.2
					c2.8,1.7,12.4,1,19.2,1.4c6.8,0.4,17,1.4,23.5-1.4c3.4-1.5,5-4.8,5.2-8.4C379.7,331.8,378.5,332.9,376.9,333.6z"/>
				<path class="st6" d="M331.2,339.6h-1.8c-1.2,0-2.1-0.9-2.1-2.1V324c0-1.2,0.9-2.1,2.1-2.1h1.8c1.2,0,2.1,0.9,2.1,2.1v13.5
					C333.2,338.7,332.3,339.6,331.2,339.6z"/>
				<path class="st4" d="M331.2,336.1h-1.8c-1.2,0-2.1-0.9-2.1-2.1v3.5c0,1.2,0.9,2.1,2.1,2.1h1.8c1.2,0,2.1-0.9,2.1-2.1v-3.5
					C333.2,335.2,332.3,336.1,331.2,336.1z"/>
			</g>
			<g>
				<g>
					<path class="st13" d="M304.3,318c1.7-12.1,3.8-18,3.8-23.6c-0.1-5.6,4.8-2,4.9,4c0,6-0.6,17.1-1.8,19.3
						C309.9,319.8,304.3,318,304.3,318z"/>
					<path class="st12" d="M298,324.3c3.2-1.3,6.1-9.5,7.4-15.8c1.9-9,1.4-11.1,4.3-10.5c1.8,0.4,2.6,2.8,1.9,7.7
						c-0.7,4.9,5.9,30.2-3,33c-3.3,1-9.7-1.8-9.7-1.8l-35.1,1.5l-0.4-16.2C263.5,322.4,292.9,326.4,298,324.3z"/>
					<path class="st13" d="M309.5,335.3c-3.4,1.1-10.1-1.8-10.1-1.8l-35.6,1.5l0.1,3.6L299,337c0,0,6.4,2.8,9.7,1.8
						c2.6-0.8,3.8-3.5,4.4-7C312.3,333.5,311.2,334.7,309.5,335.3z"/>
				</g>
				<path class="st8" d="M293.9,323.6c0,0-8.3-1.8-16.6-2.5c-8.2-0.8-6.8-1.1-13.3-2.2c-6.5-1.1-11.6-3.5-15.8,2.2
					c-4.2,5.7-4.2,15.1,2.3,17.8c6.5,2.8,16.7,1.7,23.5,1.4c6.8-0.4,16.5,0.3,19.2-1.4C296,337.2,293.9,323.6,293.9,323.6z"/>
				<path class="st9" d="M292.7,335.2c-1.6,2-15.3,2.1-15.3,2.1l3.7-3.6c0,0-12.4,3.3-19.7,3.6c-7,0.3-14.8-3.3-16-9.2
					c-0.6,4.5,0.9,9.1,5.1,10.8c6.5,2.8,16.7,1.7,23.5,1.4c6.8-0.4,16.5,0.3,19.2-1.4c0.5-0.3,0.8-1,1-1.8
					C293.5,336,292.7,335.2,292.7,335.2z"/>
				<path class="st6" d="M294.8,339.6h1.8c1.2,0,2.1-0.9,2.1-2.1V324c0-1.2-0.9-2.1-2.1-2.1h-1.8c-1.2,0-2.1,0.9-2.1,2.1v13.5
					C292.7,338.7,293.6,339.6,294.8,339.6z"/>
				<path class="st4" d="M296.6,336.4h-1.8c-1.2,0-2.1-0.9-2.1-2.1v3.2c0,1.2,0.9,2.1,2.1,2.1h1.8c1.2,0,2.1-0.9,2.1-2.1v-3.2
					C298.7,335.5,297.8,336.4,296.6,336.4z"/>
			</g>
		</g>
	</g>
	<g>
		<g>
			<path class="st10" d="M155.9,228.4c-11.2,3.6-20.4,22.3-26,29.9c-8.3,11.2-22.4,52.8-22,51.5c1.1-3.6,11.7,5.8,16.7,4.5
				c8.6-2.2,14.6-10.7,14.6-10.7s13.6-29.6,18.9-42.3C163.3,248.7,155.9,228.4,155.9,228.4z"/>
			<path class="st10" d="M223.5,228.4c11.2,3.6,23.5,22.7,27.4,32.7c3.5,8.9,19.4,39.4,21.2,50.4c1.7,10.2-32.2-9.6-32.2-9.6
				s-13.2-27.9-18.5-40.6C216.1,248.7,223.5,228.4,223.5,228.4z"/>
			<path class="st11" d="M230.3,264.8L220,243.2c-0.8,6-0.9,12.8,1.4,18.2c5.3,12.7,18.5,40.6,18.5,40.6s1.6,0.9,4.1,2.3
				c7.9,1.1,13.6-2.8,13.6-2.8s-6.6-1.8-9.1-3.5C246,296.2,231.6,268.7,230.3,264.8z"/>
			<path class="st10" d="M236.2,346.7c-1.9-26-7.2-113.8-10.1-116.7c-2.9-2.9-11.6-3.9-22.1-4l-14.3,1.9l-14.3-1.9
				c-10.5,0.1-19.2,1.1-22.1,4c-2.9,2.9-8.2,90.7-10.1,116.7c-0.5,7.1-2.1,24.9-2.1,24.9h97.3C238.4,371.6,236.7,353.8,236.2,346.7z
				"/>
			<path class="st11" d="M233.3,304.7c-0.1,0-0.3-0.1-0.4-0.1c-1.2-0.2-2.5-0.4-3.1,0.1c-0.2,0.2-0.4,0.5-0.7,0.8
				c-11.3-2.4-22.8-5-25.1-6c-3.1-1.3-5.9-9.2-7.2-15.3c-1.2-5.9-1.4-8.8-2.3-9.8c-0.2-1.3-0.3-2.6-0.3-3.8c0.1-5.4-4.7-2-4.7,3.8
				c0,3.7,0.2,9.5,0.7,13.7c-0.2,1.7-0.5,3.7-0.7,5.7c0-0.2,0-0.4-0.1-0.7c0,0,0,0,0,0l0,0c-0.2-2-0.5-3.8-0.7-5.5
				c0.5-4.2,0.7-9.7,0.7-13.2c0-5.8-4.8-9.2-4.7-3.8c0,1.3-0.1,2.6-0.3,4c-0.8,1.2-1,4-2.2,9.6c-1.2,6-4.1,14-7.2,15.3
				c-2,0.8-10.5,2.8-19.8,4.9l-2.5-51.3l-4,13.3l0.9-10.9c-2.3,5.6-17.4,40.1-18.2,41.4c-0.8,1.3-9.6,4.5-9.6,4.5l16.2,3.3
				c0.5-0.6,0.8-1.1,0.8-1.1s3.9-8.5,8.3-18.3c-0.5,6.5-0.9,13.1-1.4,19.5h0c0,0.1,0,0.2,0,0.4c-0.1,0.8-0.1,1.6-0.2,2.4
				c0,0.3,0,0.7-0.1,1c0,0.6-0.1,1.2-0.1,1.8c0,0.4,0,0.7-0.1,1.1c0,0.6-0.1,1.1-0.1,1.7c0,0.4-0.1,0.9-0.1,1.3c0,0.7-0.1,1.3-0.1,2
				c-0.3,4-0.5,7.8-0.8,11.4l0,0c-0.5,7.6-1,14.1-1.3,18.7c-0.5,7.1-2.1,24.9-2.1,24.9h12.3l2.7-39.7h12.6l-12.6-5.7l0.3-4.2
				l-0.1-1.4l20-8.7c0,0,6.2,2.7,9.4,1.7c0.3-0.1,0.5-0.2,0.8-0.3c0,0,0.1-0.1,0.1-0.1c0.2-0.1,0.4-0.2,0.6-0.4c0,0,0.1-0.1,0.1-0.1
				c0.2-0.1,0.4-0.3,0.5-0.5c0,0,0,0,0,0c0.9-1.1,3.7-0.3,3.7-0.2c0.1,0.2,0.6,0.6,0.7,0.7c0.2,0.1,0.3,0.3,0.5,0.4
				c0.1,0.1,0.2,0.1,0.2,0.2c0.3,0.1,0.5,0.3,0.8,0.4c3.2,1,9.4-1.7,9.4-1.7l23.4,10.2c0,0,0,0.1,0,0.1c0,0,0,0.1,0,0.1
				c0,0.1,0,0.1,0,0.1c0,0,0,0,0,0.1c0,0,0,0,0,0c0,0,0,0.1,0,0.1c0,0,0,0,0,0.1c0,0,0,0.1,0,0.1c0.1,0.2,0.7,0.5,1.4,0.8l0,0
				c0,0,0,0,0,0c1.2,0.5,2.8,1.1,3.2,1.2c0,0,0,0,0,0c0,0,0.1,0,0.1,0s1.6,1.3,3.6,2.9C234.4,320.7,233.9,312.9,233.3,304.7z"/>
			<path class="st6" d="M205.2,219.6c-0.6-2-2.6-2.9-2.6-2.9v2.5c-3.2,2.5-8.6,3-12.6,3.1c-5.4,0.2-8.8-1.4-13.2-3.7v-2.5
				c-5,1.3-3,9.6-1.4,11.8c1.1,1.5,6.1,2.1,11.6,2v16.8c0,0.5,0.4,0.9,0.9,0.9h3.5c0.5,0,0.9-0.4,0.9-0.9v-17
				c5.3-0.3,10.1-1,11.8-1.7C205.1,227.6,205.8,221.6,205.2,219.6z"/>
			<polygon class="st4" points="189.7,227.2 188.7,223.2 191,223.2 			"/>
			<path class="st4" d="M203.5,219.3c0-1.1-0.4-1.5-0.9-1.8v1.7c-3.2,2.5-8.6,3-12.6,3.1c-5.4,0.2-8.8-1.4-13.2-3.7v-1.5
				c-0.8,0-1.6,1.2-0.9,2.7s6.6,4,13.7,4S203.5,221.2,203.5,219.3z"/>
			<path class="st6" d="M201.7,257.3c10,1.3,18.9-1,20.4-1c1.5,0,0.8,3.3,0.6,3.9c-0.2,0.6-12.3,0.7-20.1,0.7
				C200.8,261,201.7,257.3,201.7,257.3z"/>
		</g>
		<g>
			<rect x="176.8" y="206" class="st12" width="25.7" height="18.1"/>
			<polygon class="st13" points="202.5,211.5 181.6,224.1 176.8,224.1 176.8,206 202.5,206 			"/>
			<g>
				<path class="st12" d="M189.7,147.8c-16.8,0-25.2,12-25.2,19.7c0,7.7,0,9.3,0,16.3c0,7,1.8,19.7,9.7,24.7c4.7,3,9.4,5,12.4,6
					c2,0.7,4.2,0.7,6.2,0c3-1.1,7.6-3,12.4-6c7.8-5,9.7-17.7,9.7-24.7c0-7,0-8.7,0-16.3C214.9,159.8,206.5,147.8,189.7,147.8z"/>
				<path class="st10" d="M166.5,183.2c0,0,4.1-9.5,4.1-18.2c0,0,9,5.1,17.9,6.9c0,0-2.5-1.9-3.4-3.9c0,0,9.5,2.9,23.7,2.3
					c0,0,1.3,8.4,4.3,12c0,0,4.7-7.4,4.7-13.7c0-6.3,0.1-9.7-2.2-12c-2.4-2.3-51.3-2.6-53.3,3.1c-2,5.8,0,15.1,0,18.1
					C162.4,180.8,166.5,183.2,166.5,183.2z"/>
				<path class="st8" d="M189.7,167.1h-24.9c-2.4,0-4.1,0-4.1-4.3c0.1-29.4,28.9-27.8,28.9-27.8h0c0,0,28.8-1.6,28.9,27.8
					c0,4.3-1.7,4.3-4.1,4.3H189.7"/>
				<path class="st9" d="M167.5,162.8c0.1-23.2,17.9-27.1,25.5-27.7c-2-0.2-3.3-0.1-3.4-0.1c-0.4,0-28.8-1.4-28.9,27.8
					c0,4.3,1.7,4.3,4.1,4.3h6.7C169.2,167.1,167.5,167.1,167.5,162.8z"/>
				<g>
					<path class="st12" d="M165.4,177.3c-5.9-3-7.2,3.5-8,5.8c-0.8,2.3,4.2,12.7,7.3,9.7C167.9,189.8,166.3,177.8,165.4,177.3z"/>
					<path class="st12" d="M214,177.3c5.9-3,7.2,3.5,8,5.8c0.8,2.3-4.2,12.7-7.3,9.7C211.5,189.8,213.1,177.8,214,177.3z"/>
				</g>
				<path class="st13" d="M160.3,179.8c1-0.6,3.9-2,4.2,1.4c0.3,3.4,1,8.5-0.5,9.2c-1.5,0.7-4.2-2.2-4.1-4s3.5-1.6,3.5-1.6
					s-0.1-2.8-0.6-4S160.3,179.8,160.3,179.8z"/>
				<path class="st13" d="M219,179.8c-1-0.6-3.9-2-4.2,1.4c-0.3,3.4-1,8.5,0.5,9.2c1.5,0.7,4.2-2.2,4.1-4c-0.1-1.8-3.5-1.6-3.5-1.6
					s0.1-2.8,0.6-4C217.1,179.6,219,179.8,219,179.8z"/>
				<circle class="st10" cx="180.1" cy="182.7" r="2.1"/>
				<circle class="st10" cx="199.3" cy="182.7" r="2.1"/>
				<path class="st10" d="M206,178c-2-0.9-3.8-1.6-5.6-1.7c-0.9,0-1.9,0-2.8,0.2c-0.5,0.1-1,0.3-1.5,0.4c-0.5,0.1-1,0.3-1.5,0.5
					c0.3-0.4,0.7-0.9,1.1-1.2c0.4-0.3,0.9-0.7,1.4-0.9c1-0.5,2.2-0.7,3.4-0.7c1.2,0.1,2.3,0.4,3.3,1.1
					C204.7,176.2,205.6,177,206,178z"/>
				<path class="st13" d="M183.1,200.6c2.3,0.7,4.4,1.2,6.5,1.2c1.1,0,2.1,0,3.2-0.2c0.6-0.1,1.1-0.2,1.7-0.3
					c0.6-0.1,1.1-0.3,1.8-0.4c-0.4,0.3-0.8,0.7-1.3,1c-0.5,0.3-1,0.6-1.6,0.7c-1.2,0.4-2.5,0.6-3.9,0.6c-1.4,0-2.7-0.3-3.8-0.7
					C184.6,201.9,183.7,201.3,183.1,200.6z"/>
				<path class="st10" d="M173.3,178c2-0.9,3.8-1.6,5.6-1.7c0.9,0,1.9,0,2.8,0.2c0.5,0.1,1,0.3,1.5,0.4c0.5,0.1,1,0.3,1.5,0.5
					c-0.3-0.4-0.7-0.9-1.1-1.2c-0.4-0.3-0.9-0.7-1.4-0.9c-1-0.5-2.2-0.7-3.4-0.7c-1.2,0.1-2.3,0.4-3.3,1.1
					C174.6,176.2,173.8,177,173.3,178z"/>
				<path class="st13" d="M192.2,193.9l-2-1c-0.1-0.1-0.6-0.1-0.9,0c0-0.8,0-2.1,0-3.2c0,0-0.5,1.1-0.9,2.4
					c-0.1,0.5-0.3,0.8-0.6,1.1l-0.7,0.8c-0.3,0.3-0.1,0.8,0.3,0.8c1.6,0.1,3.1-0.4,4.5,0C192.3,194.8,192.5,194.2,192.2,193.9z"/>
			</g>
		</g>
		<g>
			<g>
				<path class="st13" d="M181.3,288.2c1.6-11.7,3.7-17.4,3.6-22.8c-0.1-5.4,4.7-2,4.7,3.8c0,5.8-0.6,16.6-1.8,18.6
					C186.7,289.9,181.3,288.2,181.3,288.2z"/>
				<path class="st12" d="M175.3,294.3c3.1-1.3,5.9-9.2,7.2-15.3c1.8-8.7,1.3-10.8,4.2-10.1c1.8,0.4,2.5,2.7,1.9,7.4
					c-0.6,4.7,5.7,29.2-2.9,32c-3.2,1-9.4-1.7-9.4-1.7l-48.9,21.2l-1.6-22.4C125.8,305.4,170.4,296.3,175.3,294.3z"/>
				<path class="st13" d="M189.8,301.6c0,0,0-0.1,0-0.1c0.1-0.3,0.1-0.7,0.1-1c0,0,0-0.1,0-0.1c0-0.3,0.1-0.6,0.1-0.9
					c0-0.1,0-0.3,0-0.4c0-0.1,0-0.2,0-0.3c0,0,0,0,0,0c0.2-3.4-0.1-7.3-0.5-10.9c-0.6,1.6-2,6.2-2.1,9.3c-0.1,3.8,0.7,6.1-1.3,7.1
					c-1.6,0.6-3.3,0.4-5,0.1c-3.4-0.6-5.6-3.4-5.6-3.4v3.3l-23.4,8.1l-1.7,2.5l0.5,2.6l25.2-10.9c0,0,6.2,2.7,9.4,1.7
					c2.2-0.7,3.4-2.8,4-5.6c0,0,0-0.1,0-0.1C189.7,302.2,189.8,301.9,189.8,301.6z"/>
			</g>
			<path class="st10" d="M149.5,299.5c3.3,2.9,3.7,17.2,3.3,18c-0.3,0.6-4,2.1-4,2.1s-7.5,5.5-11.1,8c-3.6,2.5-8.5,2-13.2,3.3
				c-4.7,1.2-10.6,2.7-14.5-3.3s-5.6-17.8,2-22.9c7.6-5.1,32.6-4.5,32.6-4.5S148.4,298.5,149.5,299.5z"/>
			<path class="st11" d="M147.9,310.6c0,0-0.3,4.6-1.2,5s-6.7,4.6-8.9,5.7c-2.2,1-10.2,2.5-14.7,4.1c-4.9,1.7-11.8,1.2-15.2-2.5
				c0.6,1.8,1.3,3.4,2.2,4.7c3.9,6,9.8,4.5,14.5,3.3c4.7-1.2,9.5-0.8,13.2-3.3c3.6-2.5,11.1-8,11.1-8s0.9-0.4,1.8-0.8
				c0.4-1.9,0.6-3.5,0.5-4.3C150.8,312.1,147.9,310.6,147.9,310.6z"/>
			<path class="st6" d="M152.8,317.5c0.4-0.8,0-15-3.3-18c-1.1-1-4.9,0.7-4.9,0.7s3.9,7.4,4.3,19.4
				C148.9,319.6,152.5,318.1,152.8,317.5z"/>
			<path class="st4" d="M152.7,310.8c-0.3,0.3-0.9,0.9-1.5,1.3c-0.3-1.4-0.6-2.8-0.9-4.2c-0.5-1.8-1.1-3.5-1.9-5.1
				c0.6,1.7,0.9,3.5,1.2,5.3c0.2,1.5,0.3,3,0.3,4.5c-0.9,0.2-1.5,0.4-1.5,0.4l0,0c0.3,2,0.5,4.2,0.6,6.6c0,0,3.6-1.5,4-2.1
				C153,317.1,153,314.2,152.7,310.8z"/>
		</g>
		<g>
			<g>
				<path class="st13" d="M198,288.2c-1.6-11.7-3.7-17.4-3.6-22.8c0.1-5.4-4.7-2-4.7,3.8c0,5.8,0.6,16.6,1.8,18.6
					C192.6,289.9,198,288.2,198,288.2z"/>
				<path class="st12" d="M204.1,294.3c-3.1-1.3-5.9-9.2-7.2-15.3c-1.8-8.7-1.3-10.8-4.2-10.1c-1.8,0.4-2.5,2.7-1.9,7.4
					c0.6,4.7-5.7,29.2,2.9,32c3.2,1,9.4-1.7,9.4-1.7l48.9,21.2l1.6-22.4C253.6,305.4,209,296.3,204.1,294.3z"/>
				<path class="st13" d="M203.2,304.3V301c0,0-1.1,3.9-4.5,4.5c-3,0.5-7.4-0.3-9.3-4.6c0.5,3.7,1.7,6.5,4.3,7.3
					c3.2,1,9.4-1.7,9.4-1.7l24.7,10.7l0.5-2.4l-1.7-2.5L203.2,304.3z"/>
			</g>
			<path class="st10" d="M229.9,299.5c-3.3,2.9-3.7,17.2-3.3,18c0.3,0.6,4.7,2.1,4.7,2.1s6.8,5.5,10.4,8c3.6,2.5,8.5,2,13.2,3.3
				c4.7,1.2,10.6,2.7,14.5-3.3c3.9-6,5.6-17.8-2-22.9c-7.6-5.1-32.2-4.7-32.2-4.7S230.9,298.5,229.9,299.5z"/>
			<path class="st11" d="M269.3,327.5c0.7-1.1,1.4-2.4,1.9-3.8c-3.7,3-10,3.3-14.6,1.7c-4.6-1.7-12.9-3.2-15.2-4.3
				c-2.3-1.1-8.3-5.5-9.2-5.9c-0.9-0.4-1.3-5.1-1.3-5.1s-3,1.5-3.4,4.1c-0.1,0.7,0.1,2.2,0.5,4.1c1.4,0.6,3.3,1.3,3.3,1.3
				s6.8,5.5,10.4,8c3.6,2.5,8.5,2,13.2,3.3C259.5,332,265.4,333.5,269.3,327.5z"/>
			<path class="st6" d="M229.9,299.5c-3.3,2.9-3.7,17.2-3.3,18c0.3,0.6,4.7,2.1,4.7,2.1c0.5-11.9,3.9-19.6,3.9-19.6
				S230.9,298.5,229.9,299.5z"/>
			<path class="st4" d="M229.4,312.5c0,0-2.4-1.3-2.8-1.6c-0.3,3.4-0.3,6.3-0.1,6.6c0.3,0.6,4.7,2.1,4.7,2.1
				c0.1-2.3,0.3-4.4,0.6-6.4L229.4,312.5z"/>
		</g>
	</g>
	<g class="st0">
		<text transform="matrix(1 0 0 1 127.6943 432.2412)" class="st16 st17 st18">Ramadan</text>
		<text transform="matrix(1 0 0 1 200.5459 458.793)" class="st19 st20 st21 st22">Kareem</text>
		<g class="st23">
			<g>
				<path class="st9" d="M305.5,451c1.4-0.3,2.7-0.5,4.1-0.6c1.4-0.1,2.7-0.2,4.1-0.2c1.4,0,2.7,0.1,4.1,0.2
					c1.4,0.1,2.7,0.3,4.1,0.6c-1.4,0.3-2.7,0.5-4.1,0.6c-1.4,0.1-2.7,0.2-4.1,0.2c-1.4,0-2.7-0.1-4.1-0.2
					C308.2,451.5,306.8,451.4,305.5,451z"/>
				<path class="st9" d="M178.3,451c1.4-0.3,2.7-0.5,4.1-0.6c1.4-0.1,2.7-0.2,4.1-0.2c1.4,0,2.7,0.1,4.1,0.2
					c1.4,0.1,2.7,0.3,4.1,0.6c-1.4,0.3-2.7,0.5-4.1,0.6c-1.4,0.1-2.7,0.2-4.1,0.2c-1.4,0-2.7-0.1-4.1-0.2
					C181,451.5,179.6,451.4,178.3,451z"/>
			</g>
		</g>
	</g>
	<g class="st0">
		<rect x="70.7" y="100.8" class="st24" width="1.5" height="73.6"/>
		<path class="st25" d="M34,109.4c3.3-3.9,8.1-6.5,13.5-6.7c1.4-11,10.7-19.4,22.1-19.4c9.2,0,17.1,5.6,20.5,13.6
			c0.6-0.1,1.3-0.1,1.9-0.1c8,0,14.7,5.3,16.9,12.6H34z"/>
		<g class="st23">
			<path class="st8" d="M84.9,187.3H58v-0.8c0-3.7,3-6.7,6.7-6.7h13.5c3.7,0,6.7,3,6.7,6.7V187.3z"/>
			<path class="st8" d="M71.4,179.7c-2,0-3.6-1.6-3.6-3.6c0-2,1.6-3.6,3.6-3.6c2,0,3.6,1.6,3.6,3.6
				C75.1,178.1,73.5,179.7,71.4,179.7z M71.4,174.5c-0.9,0-1.6,0.7-1.6,1.6s0.7,1.6,1.6,1.6s1.6-0.7,1.6-1.6S72.3,174.5,71.4,174.5z
				"/>
			<path class="st8" d="M78.2,228.2H64.7c-3.7,0-6.7-3-6.7-6.7v-0.9h26.9v0.9C84.9,225.2,81.9,228.2,78.2,228.2z"/>
			<path class="st9" d="M68.5,179.7h-3.8c-3.7,0-6.7,3-6.7,6.7v0.8h3.8v-0.8C61.8,182.7,64.8,179.7,68.5,179.7z"/>
			<path class="st9" d="M61.8,221.4v-0.9H58v0.9c0,3.7,3,6.7,6.7,6.7h3.8C64.8,228.2,61.8,225.2,61.8,221.4z"/>
			<rect x="58" y="190.5" class="st10" width="26.9" height="26.9"/>
			<rect x="58" y="190.5" class="st11" width="3.8" height="26.9"/>
			<path class="st11" d="M86.3,186.4H56.6c-1.5,0-2.7,1.2-2.7,2.7l0,0c0,1.5,1.2,2.7,2.7,2.7h29.6c1.5,0,2.7-1.2,2.7-2.7l0,0
				C88.9,187.6,87.7,186.4,86.3,186.4z"/>
			<path class="st26" d="M59.1,189.1c0-1.5,1.2-2.7,2.7-2.7h-5.1c-1.5,0-2.7,1.2-2.7,2.7c0,1.5,1.2,2.7,2.7,2.7h5.1
				C60.3,191.8,59.1,190.6,59.1,189.1z"/>
			<path class="st11" d="M86.3,216.1H56.6c-1.5,0-2.7,1.2-2.7,2.7l0,0c0,1.5,1.2,2.7,2.7,2.7h29.6c1.5,0,2.7-1.2,2.7-2.7l0,0
				C88.9,217.3,87.7,216.1,86.3,216.1z"/>
			<path class="st26" d="M59.1,218.8c0-1.5,1.2-2.7,2.7-2.7h-5.1c-1.5,0-2.7,1.2-2.7,2.7c0,1.5,1.2,2.7,2.7,2.7h5.1
				C60.3,221.4,59.1,220.2,59.1,218.8z"/>
			<g>
				<path class="st27" d="M65.2,194.9c-0.8-0.8-1.9-1.1-1.9-1.1s-1,0.3-1.9,1.1c-0.8,0.8-0.7,1.7-0.7,1.7v19.5h5.2v-19.5
					C65.9,196.6,66.1,195.7,65.2,194.9z"/>
				<path class="st27" d="M73.3,194.9c-0.8-0.8-1.9-1.1-1.9-1.1s-1,0.3-1.9,1.1c-0.8,0.8-0.7,1.7-0.7,1.7v19.5H74v-19.5
					C74,196.6,74.1,195.7,73.3,194.9z"/>
				<path class="st27" d="M81.4,194.9c-0.8-0.8-1.9-1.1-1.9-1.1s-1,0.3-1.9,1.1c-0.8,0.8-0.7,1.7-0.7,1.7v19.5h5.2v-19.5
					C82.1,196.6,82.2,195.7,81.4,194.9z"/>
			</g>
		</g>
	</g>
	<g class="st0">
		<rect x="431.6" y="90.3" class="st24" width="1.5" height="120.1"/>
		<g class="st23">
			<path class="st8" d="M445.9,223.8h-26.9V223c0-3.7,3-6.7,6.7-6.7h13.5c3.7,0,6.7,3,6.7,6.7V223.8z"/>
			<path class="st8" d="M432.4,216.3c-2,0-3.6-1.6-3.6-3.6c0-2,1.6-3.6,3.6-3.6c2,0,3.6,1.6,3.6,3.6
				C436,214.6,434.4,216.3,432.4,216.3z M432.4,211.1c-0.9,0-1.6,0.7-1.6,1.6c0,0.9,0.7,1.6,1.6,1.6c0.9,0,1.6-0.7,1.6-1.6
				C434,211.8,433.3,211.1,432.4,211.1z"/>
			<path class="st8" d="M439.1,264.7h-13.5c-3.7,0-6.7-3-6.7-6.7v-0.9h26.9v0.9C445.9,261.7,442.8,264.7,439.1,264.7z"/>
			<path class="st9" d="M429.4,216.3h-3.8c-3.7,0-6.7,3-6.7,6.7v0.8h3.8V223C422.7,219.3,425.7,216.3,429.4,216.3z"/>
			<path class="st9" d="M422.7,258v-0.9h-3.8v0.9c0,3.7,3,6.7,6.7,6.7h3.8C425.7,264.7,422.7,261.7,422.7,258z"/>
			<rect x="418.9" y="227" class="st10" width="26.9" height="26.9"/>
			<rect x="418.9" y="227" class="st11" width="3.8" height="26.9"/>
			<path class="st11" d="M447.2,223h-29.6c-1.5,0-2.7,1.2-2.7,2.7l0,0c0,1.5,1.2,2.7,2.7,2.7h29.6c1.5,0,2.7-1.2,2.7-2.7l0,0
				C449.9,224.2,448.7,223,447.2,223z"/>
			<path class="st26" d="M420,225.7c0-1.5,1.2-2.7,2.7-2.7h-5.1c-1.5,0-2.7,1.2-2.7,2.7c0,1.5,1.2,2.7,2.7,2.7h5.1
				C421.2,228.4,420,227.2,420,225.7z"/>
			<path class="st11" d="M447.2,252.6h-29.6c-1.5,0-2.7,1.2-2.7,2.7v0c0,1.5,1.2,2.7,2.7,2.7h29.6c1.5,0,2.7-1.2,2.7-2.7v0
				C449.9,253.8,448.7,252.6,447.2,252.6z"/>
			<path class="st26" d="M420,255.3c0-1.5,1.2-2.7,2.7-2.7h-5.1c-1.5,0-2.7,1.2-2.7,2.7c0,1.5,1.2,2.7,2.7,2.7h5.1
				C421.2,258,420,256.8,420,255.3z"/>
			<g>
				<path class="st27" d="M426.2,231.5c-0.8-0.8-1.9-1.1-1.9-1.1s-1,0.3-1.9,1.1c-0.8,0.8-0.7,1.7-0.7,1.7v19.5h5.2v-19.5
					C426.9,233.1,427,232.2,426.2,231.5z"/>
				<path class="st27" d="M434.3,231.5c-0.8-0.8-1.9-1.1-1.9-1.1s-1,0.3-1.9,1.1c-0.8,0.8-0.7,1.7-0.7,1.7v19.5h5.2v-19.5
					C435,233.1,435.1,232.2,434.3,231.5z"/>
				<path class="st27" d="M442.3,231.5c-0.8-0.8-1.9-1.1-1.9-1.1s-1,0.3-1.9,1.1c-0.8,0.8-0.7,1.7-0.7,1.7v19.5h5.2v-19.5
					C443.1,233.1,443.2,232.2,442.3,231.5z"/>
			</g>
		</g>
		<path class="st25" d="M374,105.4c2.9-4.5,7.9-7.4,13.6-7.4c2.7,0,5.2,0.7,7.5,1.8c3.2-6.4,9.9-10.8,17.5-10.8
			c1.8,0,3.5,0.2,5.1,0.7c1.1-9.8,9.4-17.4,19.5-17.4c10.8,0,19.6,8.8,19.6,19.6c0,0.8-0.1,1.6-0.2,2.4c0.1,0,0.1,0,0.2,0
			c7.4,0,13.6,4.6,16.1,11.1H374z"/>
	</g>
	<g>
		<path class="st6" d="M261.2,111.4c-17.3,0-31.4-14-31.4-31.4c0-11.8,6.5-22.1,16.2-27.4c-19.5,2-34.6,18.5-34.6,38.5
			c0,21.4,17.3,38.7,38.7,38.7c20,0,36.5-15.2,38.5-34.6C283.3,104.9,273,111.4,261.2,111.4z"/>
		<path class="st4" d="M246,52.6c-13.2,5.9-22,21.5-22,33.3c0,17.3,14,31.4,31.4,31.4c11.8,0,28.3-7.5,33.3-22
			c-5.3,9.7-15.6,16.2-27.4,16.2c-17.3,0-31.4-14-31.4-31.4C229.8,68.3,236.4,58,246,52.6z"/>
		<polygon class="st6" points="267.5,81.6 259.7,85.7 261.2,77 254.9,70.9 263.6,69.6 267.5,61.7 271.4,69.6 280.1,70.9 273.8,77 
			275.3,85.7 		"/>
		<path class="st4" d="M261.4,70l-6.6,1l6.3,6.1l-1.5,8.7l7.8-4.1l7.8,4.1l-1.1-6.5C268.5,78.5,263.8,74.9,261.4,70z"/>
	</g>
	<g class="st0">
		<path class="st28" d="M93.1,35.6L93.1,35.6c-2.2,0.1-4,1.8-4,4h0c0-2.2-1.8-4-4-4c2.2,0,4-1.8,4-4C89.1,33.8,90.9,35.6,93.1,35.6z
			"/>
		<path class="st28" d="M424.1,35.6L424.1,35.6c-2.2,0.1-4,1.8-4,4h0c0-2.2-1.8-4-4-4c2.2,0,4-1.8,4-4
			C420.1,33.8,421.9,35.6,424.1,35.6z"/>
		<path class="st28" d="M373.4,97.2L373.4,97.2c-2.2,0.1-4,1.8-4,4h0c0-2.2-1.8-4-4-4c2.2,0,4-1.8,4-4
			C369.4,95.4,371.2,97.2,373.4,97.2z"/>
		<path class="st28" d="M120.1,126.2L120.1,126.2c-3.6,0.1-6.4,2.9-6.5,6.5h0c0-3.6-2.9-6.5-6.5-6.5c3.6,0,6.5-2.9,6.5-6.5
			C113.6,123.3,116.5,126.2,120.1,126.2z"/>
		<path class="st28" d="M455.6,170.4L455.6,170.4c-3.6,0.1-6.4,2.9-6.5,6.5h0c0-3.6-2.9-6.5-6.5-6.5c3.6,0,6.5-2.9,6.5-6.5
			C449.1,167.5,452,170.4,455.6,170.4z"/>
		<path class="st28" d="M70.1,251.2L70.1,251.2c-3.6,0.1-6.4,2.9-6.5,6.5h0c0-3.6-2.9-6.5-6.5-6.5c3.6,0,6.5-2.9,6.5-6.5
			C63.6,248.3,66.5,251.2,70.1,251.2z"/>
		<path class="st28" d="M449.1,308.8L449.1,308.8c-2.2,0.1-4,1.8-4,4h0c0-2.2-1.8-4-4-4c2.2,0,4-1.8,4-4
			C445.1,307,446.8,308.8,449.1,308.8z"/>
		<path class="st28" d="M42.3,306.9L42.3,306.9c-2.2,0.1-4,1.8-4,4h0c0-2.2-1.8-4-4-4c2.2,0,4-1.8,4-4
			C38.3,305.1,40.1,306.9,42.3,306.9z"/>
	</g>
</g>
</svg>
